<?xml version="1.0" encoding="UTF-8" standalone="no"?>
<!DOCTYPE svg PUBLIC "-//W3C//DTD SVG 1.1//EN" "http://www.w3.org/Graphics/SVG/1.1/DTD/svg11.dtd">
<svg width="100%" height="100%" viewBox="0 0 677 677" version="1.1" xmlns="http://www.w3.org/2000/svg" xmlns:xlink="http://www.w3.org/1999/xlink" xml:space="preserve" xmlns:serif="http://www.serif.com/" style="fill-rule:evenodd;clip-rule:evenodd;stroke-linejoin:round;stroke-miterlimit:2;">
    <g transform="matrix(1,0,0,1,-1161.892761,-661.392761)">
        <g>
            <g transform="matrix(1,0,0,1,979.345695,-21.293196)">
                <g transform="matrix(1,0,0,1,0,488.545983)">
                    <g transform="matrix(1.63929,0,0,1.535375,-1080.899103,-1136.147713)">
                        <path d="M976.657,1077.24C967.873,1077.24 959.983,1075.069 952.988,1070.727C945.994,1066.385 940.503,1060.437 936.518,1052.881C932.532,1045.326 930.54,1036.512 930.54,1026.438L930.54,935.777C930.54,931.087 929.482,926.832 927.368,923.011C925.253,919.19 922.406,916.15 918.827,913.893C915.249,911.635 911.344,910.506 907.115,910.506C902.885,910.506 899.022,911.635 895.525,913.893C892.027,916.15 889.262,919.19 887.228,923.011C885.195,926.832 884.178,931.087 884.178,935.777L884.178,1074.114L860.753,1074.114L860.753,939.163C860.753,929.611 862.705,921.014 866.61,913.372C870.514,905.73 875.963,899.694 882.958,895.265C889.953,890.836 898.005,888.622 907.115,888.622C916.387,888.622 924.521,890.836 931.516,895.265C938.511,899.694 943.96,905.73 947.864,913.372C951.768,921.014 953.72,929.611 953.72,939.163L953.72,1029.825C953.72,1034.688 954.778,1038.987 956.893,1042.721C959.007,1046.455 961.813,1049.451 965.311,1051.709C968.808,1053.967 972.59,1055.096 976.657,1055.096C980.724,1055.096 984.465,1053.967 987.882,1051.709C991.298,1049.451 994.022,1046.455 996.056,1042.721C998.089,1038.987 999.106,1034.688 999.106,1029.825L999.106,939.163C999.106,929.611 1001.099,921.014 1005.084,913.372C1009.07,905.73 1014.56,899.694 1021.555,895.265C1028.55,890.836 1036.683,888.622 1045.956,888.622C1055.065,888.622 1063.117,890.836 1070.112,895.265C1077.107,899.694 1082.557,905.73 1086.461,913.372C1090.365,921.014 1092.317,929.611 1092.317,939.163L1092.317,1074.114L1068.892,1074.114L1068.892,935.777C1068.892,931.087 1067.876,926.832 1065.842,923.011C1063.809,919.19 1061.043,916.15 1057.546,913.893C1054.048,911.635 1050.185,910.506 1045.956,910.506C1041.563,910.506 1037.619,911.635 1034.121,913.893C1030.624,916.15 1027.818,919.19 1025.703,923.011C1023.588,926.832 1022.531,931.087 1022.531,935.777L1022.531,1026.438C1022.531,1036.512 1020.538,1045.326 1016.553,1052.881C1012.567,1060.437 1007.118,1066.385 1000.204,1070.727C993.29,1075.069 985.442,1077.24 976.657,1077.24Z" style="fill:rgb(41,63,84);fill-rule:nonzero;"/>
                    </g>
                    <g transform="matrix(1,0,0,1,0,-242.411963)">
                        <path d="M368.171,888.954C368.171,972.822 436.261,1040.912 520.129,1040.912C603.997,1040.912 672.088,972.822 672.088,888.954L672.088,793.775L709.862,793.775L709.862,888.954C709.862,993.67 624.846,1078.687 520.129,1078.687C415.413,1078.687 330.396,993.67 330.396,888.954L330.396,793.775L368.171,793.775L368.171,888.954Z" style="fill:rgb(41,63,84);"/>
                    </g>
                    <g transform="matrix(1,0,0,1,-320.971828,-18.766066)">
                        <path d="M597.39,679.339C592.791,679.339 589.057,675.605 589.057,671.005C589.057,666.406 592.791,662.672 597.39,662.672L782.996,662.672C787.595,662.672 791.329,666.406 791.329,671.005C791.329,675.605 787.595,679.339 782.996,679.339L597.39,679.339Z" style="fill:rgb(41,63,84);"/>
                    </g>
                    <g transform="matrix(0,-0.54837,1,0,-150.923601,1080.040462)">
                        <path d="M703.858,679.339L597.39,679.339C589.003,679.339 582.193,675.605 582.193,671.005C582.193,666.406 589.003,662.672 597.39,662.672L703.858,662.672C702.432,665.417 701.697,668.211 701.697,671.005C701.697,673.8 702.432,676.593 703.858,679.339Z" style="fill:rgb(41,63,84);"/>
                    </g>
                    <g transform="matrix(0.829012,0,0,1,-187.08895,22.813744)">
                        <path d="M597.39,679.339C591.842,679.339 587.338,675.605 587.338,671.005C587.338,666.406 591.842,662.672 597.39,662.672L782.996,662.672C788.547,662.672 793.048,666.403 793.048,671.005C793.048,698.765 820.234,721.303 853.719,721.303C887.204,721.303 914.39,698.765 914.39,671.005C914.39,666.403 918.891,662.672 924.442,662.672L1110.048,662.672C1115.596,662.672 1120.1,666.406 1120.1,671.005C1120.1,675.605 1115.596,679.339 1110.048,679.339L933.874,679.339C928.919,712.37 894.897,737.969 853.719,737.969C812.541,737.969 778.519,712.37 773.564,679.339L597.39,679.339Z" style="fill:rgb(41,63,84);"/>
                    </g>
                    <g transform="matrix(1,0,0,1,-18.105016,-18.766066)">
                        <path d="M597.39,679.339C592.791,679.339 589.057,675.605 589.057,671.005C589.057,666.406 592.791,662.672 597.39,662.672L782.996,662.672C787.595,662.672 791.329,666.406 791.329,671.005C791.329,675.605 787.595,679.339 782.996,679.339L597.39,679.339Z" style="fill:rgb(41,63,84);"/>
                    </g>
                    <g transform="matrix(1.25908,0,0,1.25908,79.830412,-17.709692)">
                        <path d="M349.661,512.834C360.294,512.834 368.926,512.139 368.926,522.771C368.926,533.404 360.294,551.363 349.661,551.363C339.029,551.363 330.396,533.404 330.396,522.771C330.396,512.139 339.029,512.834 349.661,512.834Z" style="fill:rgb(41,63,84);"/>
                    </g>
                </g>
                <g transform="matrix(1.347386,0,0,1.655954,111.389768,190.82338)">
                    <circle cx="349.661" cy="532.099" r="19.265" style="fill:rgb(41,63,84);"/>
                </g>
                <g transform="matrix(1.347386,0,0,1.655954,-15.013513,190.82338)">
                    <circle cx="349.661" cy="532.099" r="19.265" style="fill:rgb(41,63,84);"/>
                </g>
            </g>
            <g transform="matrix(1.102107,0,0,1.102107,-360.812502,-105.092345)">
                <rect x="1381.631" y="695.473" width="613.565" height="613.565" style="fill:none;"/>
            </g>
        </g>
    </g>
</svg>
